<?xml version="1.0" encoding="iso-8859-1"?>
<!-- Generator: Adobe Illustrator 18.0.0, SVG Export Plug-In . SVG Version: 6.00 Build 0)  -->
<!DOCTYPE svg PUBLIC "-//W3C//DTD SVG 1.1//EN" "http://www.w3.org/Graphics/SVG/1.1/DTD/svg11.dtd">
<svg version="1.1" id="&#x56FE;&#x5C42;_1" xmlns="http://www.w3.org/2000/svg" xmlns:xlink="http://www.w3.org/1999/xlink" x="0px"
	 y="0px" viewBox="0 0 24 24" style="enable-background:new 0 0 24 24;" xml:space="preserve">
<g>
	<rect x="8" y="8" style="fill:#B5B5B6;" width="4" height="1"/>
	<rect x="9" y="10" style="fill:#B5B5B6;" width="5" height="0"/>
	<rect x="8" y="10" style="fill:#B5B5B6;" width="7" height="1"/>
	<rect x="8" y="12" style="fill:#B5B5B6;" width="5" height="1"/>
	<rect x="9" y="13" style="fill:#B5B5B6;" width="3" height="0"/>
	<path style="fill:#B5B5B6;" d="M21,4H3C2.448,4,2,4.448,2,5v14c0,0.552,0.448,1,1,1h18c0.552,0,1-0.448,1-1V5
		C22,4.448,21.552,4,21,4z M14,6.016L16.016,8H14V6.016z M7,6h6v3h3v7H7V6z M4.875,19l1.007-0.879C5.999,18.003,6.072,18,6.204,18
		h11.992l1.125,1H4.875z"/>
	<polygon style="fill:#B5B5B6;" points="15.457,18 15.269,17.46 14.762,17.697 13.287,16.218 13.529,15.709 13,15.52 13,13.437 
		13.529,13.248 13.287,12.74 14.761,11.268 15.269,11.519 15.458,11 17.542,11 17.73,11.519 18.238,11.273 19.711,12.742 
		19.47,13.249 20,13.437 20,15.519 19.47,15.708 19.711,16.216 18.237,17.691 17.73,17.46 17.543,18 	"/>
	<path id="gear-icon_4_" style="fill:#FFFFFF;" d="M19,14.815v-0.673l-0.364-0.129c-0.139-0.049-0.25-0.155-0.307-0.291l0,0
		c-0.057-0.136-0.053-0.29,0.011-0.424l0.166-0.349l-0.476-0.476l-0.349,0.166c-0.133,0.063-0.287,0.067-0.424,0.011l0,0
		c-0.136-0.056-0.242-0.168-0.291-0.307l-0.129-0.364h-0.673l-0.129,0.364c-0.049,0.139-0.155,0.25-0.291,0.307l0,0
		c-0.136,0.057-0.29,0.053-0.424-0.011l-0.349-0.166l-0.476,0.476l0.166,0.349c0.063,0.133,0.067,0.287,0.011,0.424l0,0
		c-0.056,0.136-0.168,0.242-0.307,0.291L14,14.141v0.673l0.364,0.129c0.139,0.049,0.25,0.155,0.307,0.291l0,0
		c0.057,0.136,0.053,0.29-0.011,0.424l-0.166,0.349l0.476,0.476l0.349-0.166c0.133-0.063,0.287-0.067,0.424-0.011l0,0
		c0.136,0.056,0.242,0.168,0.291,0.307l0.129,0.364h0.673l0.129-0.362c0.05-0.14,0.157-0.253,0.294-0.31l0,0
		c0.135-0.056,0.288-0.052,0.42,0.01l0.351,0.167l0.476-0.476l-0.166-0.349c-0.063-0.133-0.067-0.287-0.011-0.423l0,0
		c0.056-0.136,0.168-0.242,0.307-0.292L19,14.815z M16.5,15.395c-0.506,0-0.917-0.41-0.917-0.917s0.41-0.917,0.917-0.917
		c0.506,0,0.917,0.41,0.917,0.917S17.006,15.395,16.5,15.395z"/>
</g>
</svg>
