<?xml version="1.0" encoding="iso-8859-1"?>
<!-- Generator: Adobe Illustrator 18.0.0, SVG Export Plug-In . SVG Version: 6.00 Build 0)  -->
<!DOCTYPE svg PUBLIC "-//W3C//DTD SVG 1.1//EN" "http://www.w3.org/Graphics/SVG/1.1/DTD/svg11.dtd">
<svg version="1.1" id="&#x56FE;&#x5C42;_1" xmlns="http://www.w3.org/2000/svg" xmlns:xlink="http://www.w3.org/1999/xlink" x="0px"
	 y="0px" viewBox="0 0 64 64" style="enable-background:new 0 0 64 64;" xml:space="preserve">
<g>
	<rect x="25" y="22" style="fill:#B5B5B6;" width="7" height="2"/>
	<rect x="25" y="26" style="fill:#B5B5B6;" width="13" height="2"/>
	<rect x="25" y="30" style="fill:#B5B5B6;" width="13" height="2"/>
	<rect x="25" y="34" style="fill:#B5B5B6;" width="7" height="2"/>
	<circle style="fill:#B5B5B6;" cx="41" cy="39" r="1.834"/>
	<path style="fill:#B5B5B6;" d="M56.014,11h-48C6.36,11,5,11.96,5,13.615v36C5,51.269,6.36,53,8.014,53h48
		C57.669,53,59,51.269,59,49.615v-36C59,11.96,57.669,11,56.014,11z M41.932,34.728c0.099,0.278,0.31,0.501,0.583,0.613l0,0
		c0.273,0.113,0.581,0.105,0.847-0.022l0.697-0.331l0.952,0.952l-0.331,0.697c-0.127,0.267-0.135,0.574-0.022,0.847l0,0
		c0.113,0.272,0.336,0.484,0.613,0.583L46,38.327v1.347l-0.727,0.259c-0.278,0.099-0.501,0.311-0.614,0.583l0,0
		c-0.113,0.272-0.105,0.58,0.022,0.847l0.332,0.697l-0.952,0.952l-0.702-0.333c-0.264-0.126-0.569-0.133-0.839-0.021l0,0
		c-0.274,0.114-0.488,0.339-0.588,0.62L41.673,44h-1.347l-0.259-0.728c-0.099-0.278-0.31-0.501-0.583-0.613l0,0
		c-0.273-0.113-0.581-0.105-0.847,0.022l-0.697,0.331l-0.952-0.952l0.331-0.697c0.127-0.267,0.135-0.575,0.022-0.847l0,0
		c-0.113-0.272-0.336-0.484-0.613-0.583L36,39.673v-1.347l0.728-0.259c0.278-0.099,0.501-0.31,0.613-0.582l0,0
		c0.113-0.273,0.105-0.581-0.022-0.847l-0.331-0.697l0.952-0.952l0.697,0.331c0.267,0.127,0.575,0.135,0.847,0.022l0,0
		c0.272-0.113,0.484-0.336,0.583-0.613L40.327,34h1.347L41.932,34.728z M36,17.244L40.722,22H36V17.244z M22,18c0-0.552,0.448-1,1-1
		h11v7h7v8h-2.084l-0.376,1.059l-1.015-0.482l-2.948,2.948l0.482,1.014L34,36.915V41H23c-0.552,0-1-0.448-1-1V18z M12.693,51
		l2.685-2.512C15.691,48.176,15.885,48,16.237,48h32.348c0.265,0,0.52,0.105,0.707,0.293L52,51H12.693z"/>
</g>
</svg>
