<?xml version="1.0" encoding="iso-8859-1"?>
<!-- Generator: Adobe Illustrator 18.0.0, SVG Export Plug-In . SVG Version: 6.00 Build 0)  -->
<!DOCTYPE svg PUBLIC "-//W3C//DTD SVG 1.1//EN" "http://www.w3.org/Graphics/SVG/1.1/DTD/svg11.dtd">
<svg version="1.1" id="&#x56FE;&#x5C42;_1" xmlns="http://www.w3.org/2000/svg" xmlns:xlink="http://www.w3.org/1999/xlink" x="0px"
	 y="0px" viewBox="0 0 24 24" style="enable-background:new 0 0 24 24;" xml:space="preserve">
<g>
	<path style="fill:#B5B5B6;" d="M21.005,4H2.995C2.376,4,2,4.564,2,5.105v13.789C2,19.436,2.376,20,2.995,20h18.011
		C21.624,20,22,19.436,22,18.895V5.105C22,4.564,21.624,4,21.005,4z M4,8h6h0.125H14v9H4V8z M4.76,19l1.007-0.879
		C5.884,18.003,5.957,18,6.089,18h12.286l1.125,1H4.76z M20,15h-5v-1h4V7h-4.024H10V6h10V15z M18,10v3h-3v-3H18z M17,9V8h1v1H17z"/>
	<path style="fill:#B5B5B6;" d="M5,9v7h8V9H5z M12,15H6v-3h6V15z M12,11.016h-1.016V10H12V11.016z"/>
</g>
</svg>
