<?xml version="1.0" encoding="iso-8859-1"?>
<!-- Generator: Adobe Illustrator 18.0.0, SVG Export Plug-In . SVG Version: 6.00 Build 0)  -->
<!DOCTYPE svg PUBLIC "-//W3C//DTD SVG 1.1//EN" "http://www.w3.org/Graphics/SVG/1.1/DTD/svg11.dtd">
<svg version="1.1" id="&#x56FE;&#x5C42;_1" xmlns="http://www.w3.org/2000/svg" xmlns:xlink="http://www.w3.org/1999/xlink" x="0px"
	 y="0px" viewBox="0 0 64 64" style="enable-background:new 0 0 64 64;" xml:space="preserve">
<g>
	<path style="fill:#B5B5B6;" d="M56.014,12h-48C6.36,12,5,12.96,5,14.615v36C5,52.269,6.36,54,8.014,54h48
		C57.669,54,59,52.269,59,50.615v-36C59,12.96,57.669,12,56.014,12z M16,22.125C16,22.608,15.608,23,15.125,23h-4.25
		C10.392,23,10,22.608,10,22.125v-4.25C10,17.392,10.392,17,10.875,17h4.25C15.608,17,16,17.392,16,17.875V22.125z M16,33.112
		C16,33.603,15.603,34,15.112,34h-4.225C10.397,34,10,33.603,10,33.112v-4.225C10,28.397,10.397,28,10.888,28h4.225
		C15.603,28,16,28.397,16,28.888V33.112z M15.379,49.488C15.559,49.185,15.885,49,16.237,49H45v3H12.693L15.379,49.488z M57,51
		c0,0.552-0.448,1-1,1h-9V14h9c0.552,0,1,0.448,1,1V51z"/>
</g>
</svg>
