<?xml version="1.0" encoding="iso-8859-1"?>
<!-- Generator: Adobe Illustrator 18.0.0, SVG Export Plug-In . SVG Version: 6.00 Build 0)  -->
<!DOCTYPE svg PUBLIC "-//W3C//DTD SVG 1.1//EN" "http://www.w3.org/Graphics/SVG/1.1/DTD/svg11.dtd">
<svg version="1.1" id="&#x56FE;&#x5C42;_1" xmlns="http://www.w3.org/2000/svg" xmlns:xlink="http://www.w3.org/1999/xlink" x="0px"
	 y="0px" viewBox="0 0 24 24" style="enable-background:new 0 0 24 24;" xml:space="preserve">
<g>
	<path style="fill:#B5B5B6;" d="M15.5,14h-7C8.224,14,8,14.224,8,14.5v3C8,17.776,8.224,18,8.5,18h7c0.276,0,0.5-0.224,0.5-0.5v-3
		C16,14.224,15.776,14,15.5,14z"/>
	<path style="fill:#B5B5B6;" d="M11,12.5v-3C11,9.224,10.776,9,10.5,9h-5C5.224,9,5,9.224,5,9.5v3C5,12.776,5.224,13,5.5,13h5
		C10.776,13,11,12.776,11,12.5z"/>
	<path style="fill:#B5B5B6;" d="M18.5,9h-5C13.224,9,13,9.224,13,9.5v3c0,0.276,0.224,0.5,0.5,0.5h5c0.276,0,0.5-0.224,0.5-0.5v-3
		C19,9.224,18.776,9,18.5,9z"/>
	<path style="fill:#B5B5B6;" d="M21,4H3C2.448,4,2,4.448,2,5v14c0,0.552,0.448,1,1,1h18c0.552,0,1-0.448,1-1V5
		C22,4.448,21.552,4,21,4z M16.5,5h2C18.776,5,19,5.224,19,5.5v1C19,6.776,18.776,7,18.5,7h-2C16.224,7,16,6.776,16,6.5v-1
		C16,5.224,16.224,5,16.5,5z M11.5,5h2C13.776,5,14,5.224,14,5.5v1C14,6.776,13.776,7,13.5,7h-2C11.224,7,11,6.776,11,6.5v-1
		C11,5.224,11.224,5,11.5,5z M5.5,5h2C7.776,5,8,5.224,8,5.5v1C8,6.776,7.776,7,7.5,7h-2C5.224,7,5,6.776,5,6.5v-1
		C5,5.224,5.224,5,5.5,5z M21,19H3V8h18V19z"/>
</g>
</svg>
