<?xml version="1.0" encoding="iso-8859-1"?>
<!-- Generator: Adobe Illustrator 18.0.0, SVG Export Plug-In . SVG Version: 6.00 Build 0)  -->
<!DOCTYPE svg PUBLIC "-//W3C//DTD SVG 1.1//EN" "http://www.w3.org/Graphics/SVG/1.1/DTD/svg11.dtd">
<svg version="1.1" id="&#x56FE;&#x5C42;_1" xmlns="http://www.w3.org/2000/svg" xmlns:xlink="http://www.w3.org/1999/xlink" x="0px"
	 y="0px" viewBox="0 0 64 64" style="enable-background:new 0 0 64 64;" xml:space="preserve">
<g>
	<path style="fill:#B5B5B6;" d="M40,37H25c-0.552,0-1,0.448-1,1v8c0,0.552,0.448,1,1,1h15c0.552,0,1-0.448,1-1v-8
		C41,37.448,40.552,37,40,37z"/>
	<path style="fill:#B5B5B6;" d="M29,34v-8c0-0.552-0.448-1-1-1H16c-0.552,0-1,0.448-1,1v8c0,0.552,0.448,1,1,1h12
		C28.552,35,29,34.552,29,34z"/>
	<path style="fill:#B5B5B6;" d="M48,25H36c-0.552,0-1,0.448-1,1v8c0,0.552,0.448,1,1,1h12c0.552,0,1-0.448,1-1v-8
		C49,25.448,48.552,25,48,25z"/>
	<path style="fill:#B5B5B6;" d="M56,11H8c-1.657,0-3,1.343-3,3v36c0,1.657,1.343,3,3,3h48c1.657,0,3-1.343,3-3V14
		C59,12.343,57.657,11,56,11z M42,15c0-0.552,0.448-1,1-1h6c0.552,0,1,0.448,1,1v3c0,0.552-0.448,1-1,1h-6c-0.552,0-1-0.448-1-1V15z
		 M28,15c0-0.552,0.448-1,1-1h6c0.552,0,1,0.448,1,1v3c0,0.552-0.448,1-1,1h-6c-0.552,0-1-0.448-1-1V15z M14,15c0-0.552,0.448-1,1-1
		h6c0.552,0,1,0.448,1,1v3c0,0.552-0.448,1-1,1h-6c-0.552,0-1-0.448-1-1V15z M55,48c0,0.552-0.448,1-1,1H10c-0.552,0-1-0.448-1-1V23
		c0-0.552,0.448-1,1-1h44c0.552,0,1,0.448,1,1V48z"/>
</g>
</svg>
