<?xml version="1.0" encoding="iso-8859-1"?>
<!-- Generator: Adobe Illustrator 18.0.0, SVG Export Plug-In . SVG Version: 6.00 Build 0)  -->
<!DOCTYPE svg PUBLIC "-//W3C//DTD SVG 1.1//EN" "http://www.w3.org/Graphics/SVG/1.1/DTD/svg11.dtd">
<svg version="1.1" id="&#x56FE;&#x5C42;_1" xmlns="http://www.w3.org/2000/svg" xmlns:xlink="http://www.w3.org/1999/xlink" x="0px"
	 y="0px" viewBox="0 0 64 64" style="enable-background:new 0 0 64 64;" xml:space="preserve">
<g>
	<path style="fill:#B5B5B6;" d="M56.014,11H7.986C6.337,11,5,12.171,5,13.615v36.771C5,51.829,6.337,53,7.986,53h48.029
		C57.663,53,59,51.829,59,50.385V13.615C59,12.171,57.663,11,56.014,11z M13,23h25c0.552,0,1,0.448,1,1v19c0,0.552-0.448,1-1,1H13
		c-0.552,0-1-0.448-1-1V24C12,23.448,12.448,23,13,23z M49,24v9h-8v-9H49z M44,22v-2h2v2H44z M47,22v-2h2v2H47z M43,22h-2v-2h2V22z
		 M12.693,51l2.685-2.512C15.691,48.176,15.885,48,16.237,48h32.348c0.265,0,0.52,0.105,0.707,0.293L52,51H12.693z M52,37H42
		c-0.552,0-1-0.448-1-1v-1h10V18H28v3h-1c-0.552,0-1-0.448-1-1v-3c0-0.552,0.448-1,1-1h25c0.552,0,1,0.448,1,1v19
		C53,36.552,52.552,37,52,37z"/>
	<path style="fill:#B5B5B6;" d="M14,42h23V25H14V42z M33.188,26.813h2v2h-2V26.813z M30.188,26.813h2v2h-2V26.813z M27.188,26.813h2
		v2h-2V26.813z M16,31h19v9H16V31z"/>
</g>
</svg>
