<?xml version="1.0" encoding="iso-8859-1"?>
<!-- Generator: Adobe Illustrator 18.0.0, SVG Export Plug-In . SVG Version: 6.00 Build 0)  -->
<!DOCTYPE svg PUBLIC "-//W3C//DTD SVG 1.1//EN" "http://www.w3.org/Graphics/SVG/1.1/DTD/svg11.dtd">
<svg version="1.1" id="&#x56FE;&#x5C42;_1" xmlns="http://www.w3.org/2000/svg" xmlns:xlink="http://www.w3.org/1999/xlink" x="0px"
	 y="0px" viewBox="0 0 48 48" style="enable-background:new 0 0 48 48;" xml:space="preserve">
<rect x="0.252" y="-0.047" style="opacity:0.42;fill:#FFFFFF;" width="48" height="48"/>
<g>
	<g>
		<g>
			<path style="fill:#030303;" d="M24,44C12.42,44,3,34.579,3,23S12.42,2,24,2c11.579,0,21,9.421,21,21S35.58,44,24,44z"/>
		</g>
	</g>
	<g>
		<g>
			<path style="fill:#1E1E1E;" d="M24,43C12.971,43,4,34.028,4,23S12.971,3,24,3c11.028,0,20,8.972,20,20S35.028,43,24,43z"/>
		</g>
	</g>
	<g>
		<g>
			<path style="fill:#030303;" d="M24,42C13.522,42,5,33.477,5,23S13.522,4,24,4c10.476,0,19,8.524,19,19S34.477,42,24,42z"/>
		</g>
	</g>
</g>
<g>
	<g>
		<path style="fill:#3EB0FC;" d="M24.252,22.982c-0.552,0-1-0.448-1-1v-10c0-0.552,0.448-1,1-1s1,0.448,1,1v10
			C25.252,22.534,24.804,22.982,24.252,22.982z"/>
	</g>
	<g>
		<path style="fill:#3EB0FC;" d="M24.094,33.966c-6.065,0-11-4.935-11-11c0-3.492,1.604-6.7,4.399-8.8
			c0.442-0.332,1.069-0.242,1.4,0.199c0.332,0.441,0.243,1.068-0.199,1.4c-2.288,1.719-3.6,4.344-3.6,7.201c0,4.963,4.038,9,9,9
			c4.963,0,9-4.037,9-9c0-2.86-1.314-5.486-3.605-7.205c-0.441-0.332-0.53-0.958-0.199-1.4c0.331-0.442,0.957-0.531,1.4-0.2
			c2.799,2.101,4.404,5.31,4.404,8.805C35.095,29.032,30.16,33.966,24.094,33.966z"/>
	</g>
</g>
</svg>
