<?xml version="1.0" encoding="iso-8859-1"?>
<!-- Generator: Adobe Illustrator 18.0.0, SVG Export Plug-In . SVG Version: 6.00 Build 0)  -->
<!DOCTYPE svg PUBLIC "-//W3C//DTD SVG 1.1//EN" "http://www.w3.org/Graphics/SVG/1.1/DTD/svg11.dtd">
<svg version="1.1" id="&#x56FE;&#x5C42;_1" xmlns="http://www.w3.org/2000/svg" xmlns:xlink="http://www.w3.org/1999/xlink" x="0px"
	 y="0px" viewBox="0 0 24 24" style="enable-background:new 0 0 24 24;" xml:space="preserve">
<g>
	<path style="fill:#B5B5B6;" d="M21,4H3C2.448,4,2,4.448,2,5v14c0,0.552,0.448,1,1,1h18c0.552,0,1-0.448,1-1V5
		C22,4.448,21.552,4,21,4z M5.5,8h-1C4.224,8,4,7.776,4,7.5v-1C4,6.224,4.224,6,4.5,6h1C5.776,6,6,6.224,6,6.5v1
		C6,7.776,5.776,8,5.5,8z M5.5,12h-1C4.224,12,4,11.776,4,11.5v-1C4,10.224,4.224,10,4.5,10h1C5.776,10,6,10.224,6,10.5v1
		C6,11.776,5.776,12,5.5,12z M5.847,18.115C5.914,18,6.035,18,6.165,18H16v1H4.853L5.847,18.115z M20.5,19H17V5h3.5
		C20.776,5,21,5.224,21,5.5v13C21,18.776,20.776,19,20.5,19z"/>
</g>
</svg>
